PathFileType	4	(X/Y/Z)	RBDS021\RBDS021runT35.trc
DataRate	CameraRate	NumFrames	NumMarkers	Units	OrigDataRate	OrigDataStartFrame	OrigNumFrames
150.000000	150.000000	4	33	mm	150.000000	0	4500
Frame#	Time	L.ASIS			L.Heel.Bottom			L.Heel.Lateral			L.Heel.Top			L.Iliac.Crest			L.MT1			L.MT5			L.PSIS			L.Shank.Bottom.Lateral			L.Shank.Bottom.Medial			L.Shank.Top.Lateral			L.Shank.Top.Medial			L.Thigh.Bottom.Lateral			L.Thigh.Bottom.Medial			L.Thigh.Top.Lateral			L.Thigh.Top.Medial			R.ASIS			R.ASY			R.Heel.Bottom			R.Heel.Lateral			R.Heel.Top			R.Iliac.Crest			R.MT1			R.MT5			R.PSIS			R.Shank.Bottom.Lateral			R.Shank.Bottom.Medial			R.Shank.Top.Lateral			R.Shank.Top.Medial			R.Thigh.Bottom.Lateral			R.Thigh.Bottom.Medial			R.Thigh.Top.Lateral			R.Thigh.Top.Medial			
		X1	Y1	Z1	X2	Y2	Z2	X3	Y3	Z3	X4	Y4	Z4	X5	Y5	Z5	X6	Y6	Z6	X7	Y7	Z7	X8	Y8	Z8	X9	Y9	Z9	X10	Y10	Z10	X11	Y11	Z11	X12	Y12	Z12	X13	Y13	Z13	X14	Y14	Z14	X15	Y15	Z15	X16	Y16	Z16	X17	Y17	Z17	X18	Y18	Z18	X19	Y19	Z19	X20	Y20	Z20	X21	Y21	Z21	X22	Y22	Z22	X23	Y23	Z23	X24	Y24	Z24	X25	Y25	Z25	X26	Y26	Z26	X27	Y27	Z27	X28	Y28	Z28	X29	Y29	Z29	X30	Y30	Z30	X31	Y31	Z31	X32	Y32	Z32	X33	Y33	Z33	

1	0	2137.711906471029	968.8022525217893	897.06789589186	1513.501517600416	462.6106312822756	1020.170517965837	1515.921676776509	453.0607936275163	963.5175672286451	1556.291226773204	455.4688562701792	1001.049248918428	2089.074984412342	1061.661026473745	853.3263234336267	1516.230102020288	248.6847001807132	972.2720894680924	1477.592837521985	318.6850410134775	889.4370676720126	1964.088961863647	1021.567417825821	954.614739395481	1628.065472385819	430.0344586907425	905.2883468745456	1628.307333199391	459.8413673441265	952.3169201640284	1699.850842217543	460.4735287134118	886.6881404824445	1700.359219288166	490.7387737997688	931.0368157879411	1982.141494837436	610.6620226630954	833.7332399420674	1926.420501779682	630.7584040520221	873.8330430437459	2002.498486981579	716.6150218921636	812.4695021410224	1947.263055722529	735.9209257870256	848.4947697120224	2127.754866209882	971.7739211212229	1114.979844828019	2327.671779148659	83.22636334511364	1088.020828648686	2167.510781101538	47.10458978661991	996.0183884734262	2175.525407833657	46.98793140286331	1051.729685746123	2171.456627401131	87.84012985294588	1015.334512608463	2064.884228753176	1041.621204629418	1161.970137282999	2376.675500647203	61.34240436767141	1040.550343922517	2313.155207224864	25.78073613073925	1130.772506424986	1953.272806453511	1013.231627232559	1036.403772984486	2189.644068334281	170.8328157901256	1100.962642102198	2170.812355982782	181.3447704721912	1054.445191154585	2172.572803890255	250.7101945770148	1123.56067185277	2152.780632293671	257.7918927275554	1074.12275089737	2145.33275471268	630.6990201456463	1169.230661421029	2088.669570206026	604.6266254351216	1131.24221434637	2091.888620550819	726.017733475047	1178.120986244213	2038.458494540112	701.548253250157	1141.19004108792	
2	0.006666666666666667	2136.67946864212	963.5035983577912	897.5308695679586	1528.202973921328	469.7639315383972	1020.809492065906	1530.579257130491	460.8479113239039	963.6158292538373	1570.622552749902	461.2687103775398	1001.757127363151	2089.411206349794	1055.125008012039	852.8357154172857	1523.419560535334	256.7485976353898	969.3085564911729	1488.349178107284	329.2153400145667	887.2679799188576	1961.868779948657	1014.556025620178	954.6243088643552	1641.380807517898	433.4633451525583	904.805115245393	1642.860550876136	463.2452262045688	951.7923773493694	1714.155872462959	460.7935862525241	885.8071332709674	1715.903522788114	490.8816414698799	930.1601402955465	1990.1682284567	602.5196049768234	832.7955633958953	1934.104433696228	620.9331605849409	873.1573548310421	2007.289463711043	709.0920217269962	811.8152763920383	1951.811042688753	726.7653812141656	848.3214394700882	2126.683503587205	966.4448419010662	1114.483103393913	2307.168311534469	81.68471569555321	1080.505282863478	2146.087263485289	42.83405605454442	991.6524315564482	2154.362164622562	46.75163748721424	1046.682622592577	2151.15284289546	84.38477357185558	1007.696084310909	2065.43801106742	1035.544042020368	1162.406423737524	2355.698194608616	56.55704991652798	1034.740076054072	2291.880321893828	28.11412136822321	1127.000717095385	1951.380293618862	1007.646894438102	1036.735700928775	2174.193611704779	168.6182046572553	1094.638882069862	2155.195209617433	180.635779331424	1048.605785385072	2161.272851024954	248.6045554678678	1118.671455795238	2140.696266601411	256.9900533383154	1070.002911453036	2141.611336762947	625.1992012547935	1169.29962860266	2085.803214018154	599.3606059912669	1130.068669520311	2087.583605473568	720.2579899531186	1178.232975808619	2035.095421956647	695.9984605434979	1140.034535642829	
3	0.01333333333333333	2135.562668906892	958.1625683317776	898.0382251286096	1542.957428834917	476.625872423672	1021.132749032412	1545.381900514615	468.2372781453711	963.4643287180568	1585.059121323791	466.8403216649278	1002.226814457963	2089.636063720982	1048.518894123922	852.3392531680661	1531.185059031578	264.4162205477967	966.4976587073269	1499.58843084783	339.0818621888622	885.077007651848	1959.586418173833	1007.680299432144	954.5703348850939	1654.964288239253	436.6844736503554	904.2653918272188	1657.625305430881	466.4511661143484	951.2048231740856	1728.681707536352	461.0060619148921	884.9045606246078	1731.616104905656	490.9275399439935	929.2592638654977	1998.398350572052	594.6334751428959	831.9191940615892	1941.932181814587	611.3027405456864	872.433666034088	2012.236067133784	701.793922066733	811.2268003795867	1956.472320240324	717.7784028763829	848.1174366506758	2125.462552508309	961.2719905089413	1114.040581099109	2286.536591498415	80.19731757130042	1073.434990729587	2124.559879774181	38.87680100536154	987.558256703522	2133.095402946994	46.59370328539651	1041.940438202543	2130.708862665972	81.18816135288279	1000.513499013034	2065.820076287722	1029.45922586692	1162.805691961733	2334.585183454036	52.01459145846562	1029.293234206984	2270.479398094669	30.3006282682323	1123.45894890812	1949.420247634716	1002.19700712607	1036.934881273405	2158.599798482046	166.5916256699812	1088.714284302863	2139.467222524685	180.0731010382429	1043.147990766942	2149.800106251882	246.6598812460688	1114.083684526432	2128.478683993751	256.3238872006594	1066.158587388044	2137.784434608916	619.8860665854226	1169.339440648483	2082.79828749827	594.31491214755	1128.891793358433	2083.268192318818	714.73273505235	1178.314843404856	2031.679562837625	690.7158024692166	1138.883783401664	
4	0.02	2134.282286491437	952.7433999396009	898.6195224236526	1557.787980594225	482.9501323860701	1020.83652052406	1560.437469487876	474.8800137326077	962.8218780482405	1599.673857891078	471.9918421447732	1002.224245636763	2089.620698824283	1041.794042888284	851.8284470963458	1540.015044950061	271.3246629311333	963.9848364737093	1511.719180477452	347.6786729191036	882.8483231718701	1957.185463445848	1001.069638134919	954.4028916266446	1669.048269810418	439.5171270626545	903.6086258832136	1672.780509180827	469.2958903722133	950.4850170863887	1743.628505156421	461.022591738661	883.956664006805	1747.648386533227	490.8050761623099	928.3049592549102	2007.021022839006	587.2340749062404	831.1637217081633	1950.046284396642	602.0382309546493	871.6304612652885	2017.47473204011	694.918651091629	810.7702518171699	1961.34938069751	709.1046356509001	847.870658433603	2123.959678196143	956.3895821977583	1113.704758702217	2265.655304894206	78.81488836305124	1067.197456700638	2102.83472729793	35.48496279051516	983.9691634280373	2111.628527717581	46.56468092554852	1037.766410316765	2109.993919641091	78.4567765681867	994.1800349071722	2065.845158392498	1023.364242104404	1163.14115994873	2313.216386929918	47.92724271410673	1024.529390282351	2248.841751893325	32.21616800451329	1120.350878210212	1947.333170275474	997.0046066312993	1036.890280766807	2142.726123400937	164.8981729911877	1083.535580903836	2123.517309484409	179.7658488783927	1038.405225044138	2137.989921556668	244.9948650053454	1110.061331741824	2116.000258260543	255.8911709827511	1062.831010460607	2133.759667079291	614.9068640246574	1169.333503661311	2079.520432050793	589.6626522834781	1127.734622242318	2078.936480260691	709.6338084479231	1178.349515176	2028.156458365144	685.9182026341479	1137.763642077881	
